<?xml version="1.0" encoding="iso-8859-1"?>
<!-- Generator: Adobe Illustrator 17.0.0, SVG Export Plug-In . SVG Version: 6.00 Build 0)  -->
<!DOCTYPE svg PUBLIC "-//W3C//DTD SVG 1.1//EN" "http://www.w3.org/Graphics/SVG/1.1/DTD/svg11.dtd">
<svg version="1.1" id="Capa_1" xmlns="http://www.w3.org/2000/svg" xmlns:xlink="http://www.w3.org/1999/xlink" x="0px" y="0px"
	 width="64px" height="64px" viewBox="0 0 64 64" style="enable-background:new 0 0 64 64;" xml:space="preserve">
<g>
	<path d="M7.173,49.889l41.018,9.775c0.592,0.141,1.167-0.228,1.288-0.823l8.622-42.524c0.122-0.596-0.263-1.183-0.854-1.313
		l-7.325-1.608c0.055-1.429,0.312-2.891,0.958-3.349c0.103-0.073,0.415-0.295,1.153,0.043c0.007,0.004,0.723,0.458,0.283,2.877
		c-0.055,0.298,0.144,0.584,0.442,0.639c0.299,0.053,0.585-0.144,0.638-0.443c0.601-3.3-0.667-3.979-0.897-4.068
		c-0.625-0.288-1.129-0.323-1.53-0.248c-1.048-0.454-1.761-0.208-2.178,0.086c-0.998,0.709-1.321,2.427-1.403,3.907l-1.519-0.334
		c0.289,0.038,0.56-0.153,0.612-0.442c0.6-3.3-0.667-3.978-0.897-4.068c-0.626-0.289-1.131-0.324-1.53-0.248
		c-1.049-0.454-1.763-0.209-2.179,0.087c-0.905,0.644-1.258,2.119-1.376,3.492L39.8,11.173c0.041-0.061,0.071-0.131,0.086-0.209
		c0.6-3.3-0.667-3.978-0.897-4.068c-0.626-0.288-1.131-0.324-1.532-0.248c-1.047-0.454-1.76-0.209-2.176,0.086
		c-0.831,0.591-1.194,1.882-1.339,3.151l-0.604-0.132c0.018-0.04,0.04-0.077,0.048-0.122c0.6-3.3-0.665-3.979-0.897-4.068
		c-0.626-0.288-1.13-0.324-1.53-0.248c-1.047-0.455-1.762-0.208-2.179,0.087c-0.81,0.577-1.174,1.82-1.328,3.06l-0.289-0.063
		c0.541-3.18-0.689-3.846-0.919-3.934c-0.623-0.288-1.128-0.324-1.53-0.248c-1.047-0.454-1.761-0.209-2.176,0.087
		c-0.755,0.536-1.122,1.646-1.293,2.795l-4.723-1.037c-0.591-0.13-1.176,0.246-1.303,0.84L6.334,48.559
		C6.207,49.153,6.583,49.748,7.173,49.889z M49.428,9.83c0.045-0.033,0.136-0.093,0.286-0.122c-0.607,0.876-0.82,2.251-0.879,3.45
		l-0.359-0.079C48.538,11.682,48.797,10.277,49.428,9.83z M47.408,15.026c0.01,0.119,0.018,0.217,0.024,0.267
		c0.025,0.284,0.265,0.496,0.545,0.496c0.019,0,0.036,0,0.054-0.003c0.303-0.029,0.524-0.298,0.495-0.601
		c-0.031-0.308-0.051-0.658-0.062-1.028c0.113-0.044,0.229-0.084,0.349-0.108c0.006,0.733,0.054,1.298,0.069,1.459
		c0.027,0.285,0.267,0.497,0.546,0.497c0.018,0,0.036-0.001,0.054-0.003c0.302-0.029,0.523-0.298,0.494-0.6
		c-0.037-0.38-0.06-0.824-0.065-1.289c0.893,0.278,1.547,1.103,1.547,2.088c0,1.213-0.984,2.197-2.198,2.197
		c-1.214,0-2.198-0.984-2.198-2.197C47.062,15.769,47.192,15.366,47.408,15.026z M43.962,8.947c0.103-0.073,0.418-0.296,1.154,0.042
		c0.007,0.005,0.724,0.459,0.284,2.877c-0.052,0.286,0.129,0.554,0.404,0.625l-2.776-0.61C43.112,10.595,43.379,9.362,43.962,8.947z
		 M42.512,8.731c0.046-0.033,0.137-0.093,0.284-0.122c-0.535,0.775-0.765,1.945-0.851,3.036l-0.361-0.08
		C41.676,10.315,41.945,9.134,42.512,8.731z M40.493,13.927c0.008,0.12,0.018,0.218,0.021,0.267
		c0.028,0.284,0.268,0.497,0.547,0.497c0.018,0,0.036,0,0.054-0.003c0.303-0.029,0.523-0.297,0.494-0.6
		c-0.03-0.308-0.051-0.658-0.06-1.028c0.111-0.045,0.229-0.083,0.349-0.109c0.004,0.733,0.052,1.299,0.068,1.46
		c0.027,0.284,0.267,0.497,0.547,0.497c0.018,0,0.034-0.001,0.054-0.002c0.301-0.03,0.523-0.298,0.492-0.601
		c-0.036-0.38-0.06-0.824-0.063-1.29c0.893,0.28,1.546,1.103,1.546,2.089c0,1.214-0.982,2.198-2.197,2.198
		c-1.214,0-2.198-0.983-2.198-2.198C40.146,14.67,40.277,14.268,40.493,13.927z M37.366,7.848c0.103-0.073,0.418-0.296,1.154,0.043
		c0.007,0.004,0.724,0.458,0.283,2.877c-0.012,0.064-0.006,0.127,0.005,0.188l-2.35-0.516C36.567,9.281,36.836,8.225,37.366,7.848z
		 M35.917,7.632c0.044-0.033,0.136-0.093,0.283-0.122c-0.479,0.694-0.712,1.706-0.817,2.693l-0.363-0.08
		C35.134,9.005,35.4,7.998,35.917,7.632z M33.898,12.828c0.009,0.12,0.017,0.218,0.021,0.267c0.028,0.284,0.268,0.497,0.548,0.497
		c0.017,0,0.035-0.001,0.053-0.002c0.303-0.03,0.524-0.298,0.494-0.601c-0.03-0.309-0.052-0.659-0.06-1.028
		c0.113-0.044,0.227-0.083,0.349-0.108c0.004,0.733,0.052,1.298,0.068,1.46c0.027,0.285,0.268,0.496,0.547,0.496
		c0.017,0,0.035,0,0.054-0.002c0.301-0.029,0.521-0.298,0.493-0.6c-0.036-0.38-0.06-0.824-0.064-1.29
		c0.893,0.279,1.546,1.103,1.546,2.089c0,1.213-0.982,2.198-2.197,2.198c-1.213,0-2.197-0.984-2.197-2.198
		C33.552,13.57,33.682,13.168,33.898,12.828z M30.868,6.516c0.104-0.073,0.418-0.296,1.153,0.043
		c0.007,0.004,0.723,0.458,0.283,2.877c-0.005,0.031,0.003,0.061,0.003,0.092L29.97,9.015C30.083,7.894,30.352,6.883,30.868,6.516z
		 M29.416,6.299c0.047-0.033,0.139-0.093,0.286-0.122c-0.466,0.673-0.697,1.644-0.81,2.601l-0.363-0.079
		C28.648,7.617,28.916,6.655,29.416,6.299z M27.399,11.495c0.008,0.12,0.016,0.218,0.021,0.268c0.027,0.284,0.268,0.496,0.547,0.496
		c0.018,0,0.035,0,0.054-0.003c0.301-0.029,0.522-0.298,0.493-0.6c-0.031-0.309-0.051-0.659-0.06-1.028
		c0.111-0.044,0.229-0.083,0.35-0.108c0.003,0.733,0.052,1.298,0.066,1.459c0.028,0.285,0.267,0.497,0.547,0.497
		c0.017,0,0.036-0.001,0.054-0.003c0.302-0.03,0.523-0.298,0.494-0.601c-0.037-0.38-0.061-0.823-0.065-1.289
		c0.893,0.278,1.548,1.102,1.548,2.088c0,1.214-0.984,2.197-2.199,2.197c-1.213,0-2.196-0.983-2.196-2.197
		C27.053,12.238,27.182,11.836,27.399,11.495z M24.624,5.417c0.103-0.073,0.418-0.297,1.153,0.042
		c0.008,0.003,0.686,0.44,0.312,2.703L23.755,7.65C23.885,6.638,24.148,5.754,24.624,5.417z M23.173,5.2
		c0.046-0.033,0.138-0.092,0.285-0.122c-0.424,0.611-0.652,1.468-0.774,2.337l-0.365-0.08C22.451,6.365,22.714,5.526,23.173,5.2z
		 M21.155,10.396c0.008,0.12,0.018,0.217,0.022,0.268c0.026,0.283,0.267,0.496,0.546,0.496c0.017,0,0.037-0.001,0.055-0.003
		c0.301-0.029,0.523-0.298,0.493-0.6c-0.029-0.308-0.051-0.658-0.06-1.028c0.113-0.044,0.228-0.083,0.35-0.108
		c0.003,0.733,0.052,1.298,0.067,1.46c0.026,0.284,0.266,0.497,0.545,0.497c0.019,0,0.036,0,0.054-0.003
		c0.304-0.029,0.523-0.297,0.495-0.6c-0.038-0.38-0.061-0.824-0.063-1.289c0.894,0.278,1.545,1.103,1.545,2.088
		c0,1.213-0.984,2.198-2.196,2.198c-1.214,0-2.199-0.984-2.199-2.198C20.808,11.139,20.937,10.737,21.155,10.396z M11.343,44.775
		l6.149-26.592c0.248-1.076,1.326-1.763,2.407-1.534l30.756,6.513c1.081,0.229,1.77,1.29,1.538,2.37L46.253,53.25
		c-0.231,1.08-1.289,1.744-2.362,1.484l-31.055-7.538C11.763,46.935,11.095,45.851,11.343,44.775z"/>
</g>
</svg>
